<mxfile host="app.diagrams.net" agent="Mozilla/5.0 (Windows NT 10.0; Win64; x64) AppleWebKit/537.36 (KHTML, like Gecko) Chrome/137.0.0.0 Safari/537.36" version="27.1.1">
  <diagram name="PÃ¡gina-1" id="BNNFv0GF89Ik_n_UJSFV">
    <mxGraphModel grid="1" page="1" gridSize="10" guides="1" tooltips="1" connect="1" arrows="1" fold="1" pageScale="1" pageWidth="827" pageHeight="1169" math="0" shadow="0">
      <root>
        <mxCell id="0" />
        <mxCell id="1" parent="0" />
        <mxCell id="86JGCpucS24EAb0vi1x8-12" style="rounded=0;orthogonalLoop=1;jettySize=auto;html=1;exitX=0.75;exitY=0;exitDx=0;exitDy=0;endArrow=none;startFill=0;" edge="1" parent="1" source="86JGCpucS24EAb0vi1x8-1">
          <mxGeometry relative="1" as="geometry">
            <mxPoint x="149.9999999999999" y="200" as="targetPoint" />
          </mxGeometry>
        </mxCell>
        <mxCell id="86JGCpucS24EAb0vi1x8-1" value="Jugador" style="rounded=0;whiteSpace=wrap;html=1;strokeColor=default;strokeWidth=1;" vertex="1" parent="1">
          <mxGeometry x="30" y="280" width="120" height="60" as="geometry" />
        </mxCell>
        <mxCell id="86JGCpucS24EAb0vi1x8-2" value="Partida" style="rounded=0;whiteSpace=wrap;html=1;" vertex="1" parent="1">
          <mxGeometry x="530" y="300" width="120" height="60" as="geometry" />
        </mxCell>
        <mxCell id="86JGCpucS24EAb0vi1x8-4" value="Tablero" style="rounded=0;whiteSpace=wrap;html=1;" vertex="1" parent="1">
          <mxGeometry x="-330" y="138" width="120" height="60" as="geometry" />
        </mxCell>
        <mxCell id="86JGCpucS24EAb0vi1x8-5" value="Dinosaurio" style="rounded=0;whiteSpace=wrap;html=1;" vertex="1" parent="1">
          <mxGeometry x="-700" y="514" width="120" height="60" as="geometry" />
        </mxCell>
        <mxCell id="86JGCpucS24EAb0vi1x8-9" value="" style="endArrow=none;html=1;rounded=0;entryX=0.5;entryY=0;entryDx=0;entryDy=0;" edge="1" parent="1" target="86JGCpucS24EAb0vi1x8-1">
          <mxGeometry width="50" height="50" relative="1" as="geometry">
            <mxPoint x="80" y="200" as="sourcePoint" />
            <mxPoint x="190" y="320" as="targetPoint" />
          </mxGeometry>
        </mxCell>
        <mxCell id="86JGCpucS24EAb0vi1x8-10" value="&lt;u&gt;id_jugador&lt;/u&gt;" style="text;html=1;align=center;verticalAlign=middle;resizable=0;points=[];autosize=1;strokeColor=none;fillColor=none;" vertex="1" parent="1">
          <mxGeometry x="44" y="170" width="80" height="30" as="geometry" />
        </mxCell>
        <mxCell id="86JGCpucS24EAb0vi1x8-13" value="nombre" style="text;html=1;align=center;verticalAlign=middle;resizable=0;points=[];autosize=1;strokeColor=none;fillColor=none;" vertex="1" parent="1">
          <mxGeometry x="130" y="170" width="60" height="30" as="geometry" />
        </mxCell>
        <mxCell id="Pi3pMl7nlMtp50f2_m2q-1" value="" style="endArrow=none;html=1;rounded=0;" edge="1" parent="1">
          <mxGeometry width="50" height="50" relative="1" as="geometry">
            <mxPoint x="590" y="300" as="sourcePoint" />
            <mxPoint x="590" y="230" as="targetPoint" />
          </mxGeometry>
        </mxCell>
        <mxCell id="Pi3pMl7nlMtp50f2_m2q-2" value="&lt;u&gt;id_partida&lt;/u&gt;" style="text;html=1;align=center;verticalAlign=middle;resizable=0;points=[];autosize=1;strokeColor=none;fillColor=none;" vertex="1" parent="1">
          <mxGeometry x="540" y="198" width="80" height="30" as="geometry" />
        </mxCell>
        <mxCell id="Pi3pMl7nlMtp50f2_m2q-3" value="" style="endArrow=none;html=1;rounded=0;" edge="1" parent="1">
          <mxGeometry width="50" height="50" relative="1" as="geometry">
            <mxPoint x="620" y="300" as="sourcePoint" />
            <mxPoint x="670" y="250" as="targetPoint" />
          </mxGeometry>
        </mxCell>
        <mxCell id="Pi3pMl7nlMtp50f2_m2q-4" value="fecha" style="text;html=1;align=center;verticalAlign=middle;resizable=0;points=[];autosize=1;strokeColor=none;fillColor=none;" vertex="1" parent="1">
          <mxGeometry x="660" y="220" width="50" height="30" as="geometry" />
        </mxCell>
        <mxCell id="Pi3pMl7nlMtp50f2_m2q-5" value="" style="endArrow=none;html=1;rounded=0;" edge="1" parent="1">
          <mxGeometry width="50" height="50" relative="1" as="geometry">
            <mxPoint x="650" y="330" as="sourcePoint" />
            <mxPoint x="720" y="290" as="targetPoint" />
          </mxGeometry>
        </mxCell>
        <mxCell id="Pi3pMl7nlMtp50f2_m2q-6" value="estado" style="text;html=1;align=center;verticalAlign=middle;resizable=0;points=[];autosize=1;strokeColor=none;fillColor=none;" vertex="1" parent="1">
          <mxGeometry x="710" y="258" width="60" height="30" as="geometry" />
        </mxCell>
        <mxCell id="Pi3pMl7nlMtp50f2_m2q-7" value="" style="endArrow=none;html=1;rounded=0;exitX=1;exitY=0.75;exitDx=0;exitDy=0;" edge="1" parent="1" source="86JGCpucS24EAb0vi1x8-2">
          <mxGeometry width="50" height="50" relative="1" as="geometry">
            <mxPoint x="690" y="390" as="sourcePoint" />
            <mxPoint x="740" y="340" as="targetPoint" />
          </mxGeometry>
        </mxCell>
        <mxCell id="Pi3pMl7nlMtp50f2_m2q-8" value="ronda_actual" style="text;html=1;align=center;verticalAlign=middle;resizable=0;points=[];autosize=1;strokeColor=none;fillColor=none;" vertex="1" parent="1">
          <mxGeometry x="737" y="315" width="90" height="30" as="geometry" />
        </mxCell>
        <mxCell id="ITycf9PlYZN2DS5Wk8c8-4" value="orden_turno" style="text;html=1;align=center;verticalAlign=middle;resizable=0;points=[];autosize=1;strokeColor=none;fillColor=none;" vertex="1" parent="1">
          <mxGeometry x="225" y="180" width="90" height="30" as="geometry" />
        </mxCell>
        <mxCell id="ITycf9PlYZN2DS5Wk8c8-5" value="" style="endArrow=none;html=1;rounded=0;entryX=0.328;entryY=0.169;entryDx=0;entryDy=0;entryPerimeter=0;exitX=0.657;exitY=1.067;exitDx=0;exitDy=0;exitPerimeter=0;" edge="1" parent="1" source="ITycf9PlYZN2DS5Wk8c8-4" target="ITycf9PlYZN2DS5Wk8c8-55">
          <mxGeometry width="50" height="50" relative="1" as="geometry">
            <mxPoint x="320" y="170" as="sourcePoint" />
            <mxPoint x="324.9999999999998" y="240" as="targetPoint" />
          </mxGeometry>
        </mxCell>
        <mxCell id="ITycf9PlYZN2DS5Wk8c8-7" value="Ronda" style="rounded=0;whiteSpace=wrap;html=1;" vertex="1" parent="1">
          <mxGeometry x="530" y="540" width="120" height="60" as="geometry" />
        </mxCell>
        <mxCell id="ITycf9PlYZN2DS5Wk8c8-8" value="" style="endArrow=none;html=1;rounded=0;exitX=1;exitY=0.5;exitDx=0;exitDy=0;" edge="1" parent="1" source="ITycf9PlYZN2DS5Wk8c8-7" target="ITycf9PlYZN2DS5Wk8c8-9">
          <mxGeometry width="50" height="50" relative="1" as="geometry">
            <mxPoint x="690" y="610" as="sourcePoint" />
            <mxPoint x="700" y="570" as="targetPoint" />
          </mxGeometry>
        </mxCell>
        <mxCell id="ITycf9PlYZN2DS5Wk8c8-9" value="&lt;u&gt;id_ronda&lt;/u&gt;" style="text;html=1;align=center;verticalAlign=middle;resizable=0;points=[];autosize=1;strokeColor=none;fillColor=none;" vertex="1" parent="1">
          <mxGeometry x="700" y="555" width="70" height="30" as="geometry" />
        </mxCell>
        <mxCell id="ITycf9PlYZN2DS5Wk8c8-11" value="n_ronda" style="text;html=1;align=center;verticalAlign=middle;resizable=0;points=[];autosize=1;strokeColor=none;fillColor=none;" vertex="1" parent="1">
          <mxGeometry x="615" y="638" width="70" height="30" as="geometry" />
        </mxCell>
        <mxCell id="ITycf9PlYZN2DS5Wk8c8-12" value="id_partida" style="text;html=1;align=center;verticalAlign=middle;resizable=0;points=[];autosize=1;strokeColor=none;fillColor=none;" vertex="1" parent="1">
          <mxGeometry x="695" y="630" width="80" height="30" as="geometry" />
        </mxCell>
        <mxCell id="ITycf9PlYZN2DS5Wk8c8-13" value="" style="endArrow=none;html=1;rounded=0;entryX=0.75;entryY=1;entryDx=0;entryDy=0;exitX=0.33;exitY=-0.07;exitDx=0;exitDy=0;exitPerimeter=0;" edge="1" parent="1" source="ITycf9PlYZN2DS5Wk8c8-11" target="ITycf9PlYZN2DS5Wk8c8-7">
          <mxGeometry width="50" height="50" relative="1" as="geometry">
            <mxPoint x="500" y="710" as="sourcePoint" />
            <mxPoint x="550" y="660" as="targetPoint" />
          </mxGeometry>
        </mxCell>
        <mxCell id="ITycf9PlYZN2DS5Wk8c8-14" value="" style="endArrow=none;html=1;rounded=0;entryX=1;entryY=0.75;entryDx=0;entryDy=0;exitX=0.061;exitY=0.015;exitDx=0;exitDy=0;exitPerimeter=0;" edge="1" parent="1" source="ITycf9PlYZN2DS5Wk8c8-12" target="ITycf9PlYZN2DS5Wk8c8-7">
          <mxGeometry width="50" height="50" relative="1" as="geometry">
            <mxPoint x="690" y="660" as="sourcePoint" />
            <mxPoint x="740" y="610" as="targetPoint" />
          </mxGeometry>
        </mxCell>
        <mxCell id="ITycf9PlYZN2DS5Wk8c8-15" value="Turno" style="rounded=0;whiteSpace=wrap;html=1;" vertex="1" parent="1">
          <mxGeometry x="-220" y="466" width="120" height="60" as="geometry" />
        </mxCell>
        <mxCell id="ITycf9PlYZN2DS5Wk8c8-16" value="&lt;u&gt;id_turno&lt;/u&gt;" style="text;html=1;align=center;verticalAlign=middle;resizable=0;points=[];autosize=1;strokeColor=none;fillColor=none;" vertex="1" parent="1">
          <mxGeometry x="-413" y="450" width="70" height="30" as="geometry" />
        </mxCell>
        <mxCell id="ITycf9PlYZN2DS5Wk8c8-17" value="n_turno" style="text;html=1;align=center;verticalAlign=middle;resizable=0;points=[];autosize=1;strokeColor=none;fillColor=none;" vertex="1" parent="1">
          <mxGeometry x="-60" y="524" width="60" height="30" as="geometry" />
        </mxCell>
        <mxCell id="ITycf9PlYZN2DS5Wk8c8-18" value="id_ronda" style="text;html=1;align=center;verticalAlign=middle;resizable=0;points=[];autosize=1;strokeColor=none;fillColor=none;" vertex="1" parent="1">
          <mxGeometry x="-165" y="564" width="70" height="30" as="geometry" />
        </mxCell>
        <mxCell id="ITycf9PlYZN2DS5Wk8c8-22" value="" style="endArrow=none;html=1;rounded=0;entryX=1.002;entryY=0.733;entryDx=0;entryDy=0;entryPerimeter=0;" edge="1" parent="1" target="ITycf9PlYZN2DS5Wk8c8-16">
          <mxGeometry width="50" height="50" relative="1" as="geometry">
            <mxPoint x="-220" y="504" as="sourcePoint" />
            <mxPoint x="-40" y="506" as="targetPoint" />
          </mxGeometry>
        </mxCell>
        <mxCell id="ITycf9PlYZN2DS5Wk8c8-23" value="" style="endArrow=none;html=1;rounded=0;exitX=1;exitY=0.75;exitDx=0;exitDy=0;entryX=0.004;entryY=0.196;entryDx=0;entryDy=0;entryPerimeter=0;" edge="1" parent="1" source="ITycf9PlYZN2DS5Wk8c8-15" target="ITycf9PlYZN2DS5Wk8c8-17">
          <mxGeometry width="50" height="50" relative="1" as="geometry">
            <mxPoint x="-60" y="543" as="sourcePoint" />
            <mxPoint x="-24" y="536" as="targetPoint" />
          </mxGeometry>
        </mxCell>
        <mxCell id="ITycf9PlYZN2DS5Wk8c8-24" value="" style="endArrow=none;html=1;rounded=0;exitX=0.642;exitY=1.047;exitDx=0;exitDy=0;entryX=0.405;entryY=0.021;entryDx=0;entryDy=0;entryPerimeter=0;exitPerimeter=0;" edge="1" parent="1" source="ITycf9PlYZN2DS5Wk8c8-15" target="ITycf9PlYZN2DS5Wk8c8-18">
          <mxGeometry width="50" height="50" relative="1" as="geometry">
            <mxPoint x="-80" y="553" as="sourcePoint" />
            <mxPoint x="-44" y="546" as="targetPoint" />
          </mxGeometry>
        </mxCell>
        <mxCell id="ITycf9PlYZN2DS5Wk8c8-27" value="" style="endArrow=none;html=1;rounded=0;entryX=0.417;entryY=0;entryDx=0;entryDy=0;entryPerimeter=0;exitX=0.546;exitY=1.082;exitDx=0;exitDy=0;exitPerimeter=0;" edge="1" parent="1" source="ITycf9PlYZN2DS5Wk8c8-19" target="ITycf9PlYZN2DS5Wk8c8-15">
          <mxGeometry width="50" height="50" relative="1" as="geometry">
            <mxPoint x="-120" y="410" as="sourcePoint" />
            <mxPoint x="-214" y="506" as="targetPoint" />
          </mxGeometry>
        </mxCell>
        <mxCell id="ITycf9PlYZN2DS5Wk8c8-29" value="Dado" style="rounded=0;whiteSpace=wrap;html=1;" vertex="1" parent="1">
          <mxGeometry x="-272.5" y="762" width="120" height="60" as="geometry" />
        </mxCell>
        <mxCell id="ITycf9PlYZN2DS5Wk8c8-30" value="&lt;u&gt;id_dado&lt;/u&gt;" style="text;html=1;align=center;verticalAlign=middle;whiteSpace=wrap;rounded=0;" vertex="1" parent="1">
          <mxGeometry x="-282.5" y="880" width="60" height="30" as="geometry" />
        </mxCell>
        <mxCell id="ITycf9PlYZN2DS5Wk8c8-31" value="restriccion" style="text;html=1;align=center;verticalAlign=middle;resizable=0;points=[];autosize=1;strokeColor=none;fillColor=none;" vertex="1" parent="1">
          <mxGeometry x="-217.5" y="880" width="80" height="30" as="geometry" />
        </mxCell>
        <mxCell id="ITycf9PlYZN2DS5Wk8c8-32" value="" style="endArrow=none;html=1;rounded=0;exitX=0.5;exitY=0;exitDx=0;exitDy=0;entryX=0.25;entryY=1;entryDx=0;entryDy=0;" edge="1" parent="1" source="ITycf9PlYZN2DS5Wk8c8-30" target="ITycf9PlYZN2DS5Wk8c8-29">
          <mxGeometry width="50" height="50" relative="1" as="geometry">
            <mxPoint x="-252.5" y="872" as="sourcePoint" />
            <mxPoint x="-272.5" y="822" as="targetPoint" />
          </mxGeometry>
        </mxCell>
        <mxCell id="ITycf9PlYZN2DS5Wk8c8-34" value="" style="endArrow=none;html=1;rounded=0;entryX=0.626;entryY=1.092;entryDx=0;entryDy=0;entryPerimeter=0;exitX=0.352;exitY=0.2;exitDx=0;exitDy=0;exitPerimeter=0;" edge="1" parent="1" source="ITycf9PlYZN2DS5Wk8c8-31" target="ITycf9PlYZN2DS5Wk8c8-29">
          <mxGeometry width="50" height="50" relative="1" as="geometry">
            <mxPoint x="-232.5" y="912" as="sourcePoint" />
            <mxPoint x="-182.5" y="862" as="targetPoint" />
          </mxGeometry>
        </mxCell>
        <mxCell id="ITycf9PlYZN2DS5Wk8c8-40" value="Recinto" style="rounded=0;whiteSpace=wrap;html=1;" vertex="1" parent="1">
          <mxGeometry x="-700" y="287" width="120" height="60" as="geometry" />
        </mxCell>
        <mxCell id="ITycf9PlYZN2DS5Wk8c8-41" value="&lt;u&gt;id_recinto&lt;/u&gt;" style="text;html=1;align=center;verticalAlign=middle;resizable=0;points=[];autosize=1;strokeColor=none;fillColor=none;" vertex="1" parent="1">
          <mxGeometry x="-795" y="210" width="80" height="30" as="geometry" />
        </mxCell>
        <mxCell id="ITycf9PlYZN2DS5Wk8c8-42" value="nombre" style="text;html=1;align=center;verticalAlign=middle;resizable=0;points=[];autosize=1;strokeColor=none;fillColor=none;" vertex="1" parent="1">
          <mxGeometry x="-785" y="290" width="60" height="30" as="geometry" />
        </mxCell>
        <mxCell id="ITycf9PlYZN2DS5Wk8c8-43" value="regla" style="text;html=1;align=center;verticalAlign=middle;resizable=0;points=[];autosize=1;strokeColor=none;fillColor=none;" vertex="1" parent="1">
          <mxGeometry x="-800" y="340" width="50" height="30" as="geometry" />
        </mxCell>
        <mxCell id="ITycf9PlYZN2DS5Wk8c8-45" value="" style="endArrow=none;html=1;rounded=0;entryX=0.69;entryY=0.887;entryDx=0;entryDy=0;entryPerimeter=0;exitX=0.13;exitY=0.006;exitDx=0;exitDy=0;exitPerimeter=0;" edge="1" parent="1" source="ITycf9PlYZN2DS5Wk8c8-40" target="ITycf9PlYZN2DS5Wk8c8-41">
          <mxGeometry width="50" height="50" relative="1" as="geometry">
            <mxPoint x="-580" y="297" as="sourcePoint" />
            <mxPoint x="-530" y="247" as="targetPoint" />
          </mxGeometry>
        </mxCell>
        <mxCell id="ITycf9PlYZN2DS5Wk8c8-46" value="" style="endArrow=none;html=1;rounded=0;exitX=0;exitY=0.5;exitDx=0;exitDy=0;" edge="1" parent="1" source="ITycf9PlYZN2DS5Wk8c8-40">
          <mxGeometry width="50" height="50" relative="1" as="geometry">
            <mxPoint x="-580" y="317" as="sourcePoint" />
            <mxPoint x="-730" y="310" as="targetPoint" />
          </mxGeometry>
        </mxCell>
        <mxCell id="ITycf9PlYZN2DS5Wk8c8-48" value="" style="endArrow=none;html=1;rounded=0;exitX=0.989;exitY=0.297;exitDx=0;exitDy=0;exitPerimeter=0;" edge="1" parent="1" source="ITycf9PlYZN2DS5Wk8c8-43">
          <mxGeometry width="50" height="50" relative="1" as="geometry">
            <mxPoint x="-430" y="427" as="sourcePoint" />
            <mxPoint x="-700" y="340" as="targetPoint" />
          </mxGeometry>
        </mxCell>
        <mxCell id="ITycf9PlYZN2DS5Wk8c8-49" value="" style="endArrow=none;html=1;rounded=0;entryX=1;entryY=0.5;entryDx=0;entryDy=0;" edge="1" parent="1" target="ITycf9PlYZN2DS5Wk8c8-50">
          <mxGeometry width="50" height="50" relative="1" as="geometry">
            <mxPoint x="-700" y="529" as="sourcePoint" />
            <mxPoint x="650" y="869" as="targetPoint" />
          </mxGeometry>
        </mxCell>
        <mxCell id="ITycf9PlYZN2DS5Wk8c8-50" value="&lt;u&gt;id_dino&lt;/u&gt;" style="text;html=1;align=center;verticalAlign=middle;whiteSpace=wrap;rounded=0;" vertex="1" parent="1">
          <mxGeometry x="-860" y="520" width="60" height="30" as="geometry" />
        </mxCell>
        <mxCell id="ITycf9PlYZN2DS5Wk8c8-52" value="tipo" style="text;html=1;align=center;verticalAlign=middle;resizable=0;points=[];autosize=1;strokeColor=none;fillColor=none;" vertex="1" parent="1">
          <mxGeometry x="-835" y="564" width="40" height="30" as="geometry" />
        </mxCell>
        <mxCell id="ITycf9PlYZN2DS5Wk8c8-53" value="" style="endArrow=none;html=1;rounded=0;entryX=0;entryY=0.75;entryDx=0;entryDy=0;exitX=1.1;exitY=0.533;exitDx=0;exitDy=0;exitPerimeter=0;" edge="1" parent="1" source="ITycf9PlYZN2DS5Wk8c8-52" target="86JGCpucS24EAb0vi1x8-5">
          <mxGeometry width="50" height="50" relative="1" as="geometry">
            <mxPoint x="550" y="994" as="sourcePoint" />
            <mxPoint x="600" y="944" as="targetPoint" />
          </mxGeometry>
        </mxCell>
        <mxCell id="ITycf9PlYZN2DS5Wk8c8-55" value="Participa" style="rhombus;whiteSpace=wrap;html=1;" vertex="1" parent="1">
          <mxGeometry x="270" y="260" width="165" height="80" as="geometry" />
        </mxCell>
        <mxCell id="ITycf9PlYZN2DS5Wk8c8-56" value="" style="endArrow=none;html=1;rounded=0;exitX=1;exitY=0.5;exitDx=0;exitDy=0;entryX=0;entryY=0.5;entryDx=0;entryDy=0;" edge="1" parent="1" source="86JGCpucS24EAb0vi1x8-1" target="ITycf9PlYZN2DS5Wk8c8-55">
          <mxGeometry width="50" height="50" relative="1" as="geometry">
            <mxPoint x="180" y="340" as="sourcePoint" />
            <mxPoint x="230" y="290" as="targetPoint" />
          </mxGeometry>
        </mxCell>
        <mxCell id="ITycf9PlYZN2DS5Wk8c8-57" value="" style="endArrow=none;html=1;rounded=0;entryX=1;entryY=0.5;entryDx=0;entryDy=0;exitX=0;exitY=0.5;exitDx=0;exitDy=0;" edge="1" parent="1" source="86JGCpucS24EAb0vi1x8-2" target="ITycf9PlYZN2DS5Wk8c8-55">
          <mxGeometry width="50" height="50" relative="1" as="geometry">
            <mxPoint x="450" y="400" as="sourcePoint" />
            <mxPoint x="500" y="350" as="targetPoint" />
          </mxGeometry>
        </mxCell>
        <mxCell id="ITycf9PlYZN2DS5Wk8c8-58" value="N" style="text;html=1;align=center;verticalAlign=middle;resizable=0;points=[];autosize=1;strokeColor=none;fillColor=none;" vertex="1" parent="1">
          <mxGeometry x="145" y="285" width="30" height="30" as="geometry" />
        </mxCell>
        <mxCell id="ITycf9PlYZN2DS5Wk8c8-59" value="1" style="text;html=1;align=center;verticalAlign=middle;resizable=0;points=[];autosize=1;strokeColor=none;fillColor=none;" vertex="1" parent="1">
          <mxGeometry x="500" y="300" width="30" height="30" as="geometry" />
        </mxCell>
        <mxCell id="ITycf9PlYZN2DS5Wk8c8-60" value="" style="endArrow=none;html=1;rounded=0;entryX=0.25;entryY=1;entryDx=0;entryDy=0;" edge="1" parent="1" target="86JGCpucS24EAb0vi1x8-1">
          <mxGeometry width="50" height="50" relative="1" as="geometry">
            <mxPoint x="50" y="410" as="sourcePoint" />
            <mxPoint x="80" y="390" as="targetPoint" />
          </mxGeometry>
        </mxCell>
        <mxCell id="ITycf9PlYZN2DS5Wk8c8-61" value="rol" style="text;html=1;align=center;verticalAlign=middle;resizable=0;points=[];autosize=1;strokeColor=none;fillColor=none;" vertex="1" parent="1">
          <mxGeometry x="30" y="408" width="40" height="30" as="geometry" />
        </mxCell>
        <mxCell id="ITycf9PlYZN2DS5Wk8c8-62" value="en_curso" style="text;html=1;align=center;verticalAlign=middle;resizable=0;points=[];autosize=1;strokeColor=none;fillColor=none;" vertex="1" parent="1">
          <mxGeometry x="795" y="198" width="70" height="30" as="geometry" />
        </mxCell>
        <mxCell id="ITycf9PlYZN2DS5Wk8c8-63" value="finalizada" style="text;html=1;align=center;verticalAlign=middle;resizable=0;points=[];autosize=1;strokeColor=none;fillColor=none;" vertex="1" parent="1">
          <mxGeometry x="840" y="258" width="70" height="30" as="geometry" />
        </mxCell>
        <mxCell id="ITycf9PlYZN2DS5Wk8c8-64" value="" style="endArrow=none;html=1;rounded=0;entryX=-0.023;entryY=1.023;entryDx=0;entryDy=0;entryPerimeter=0;exitX=0.96;exitY=0.444;exitDx=0;exitDy=0;exitPerimeter=0;" edge="1" parent="1" source="Pi3pMl7nlMtp50f2_m2q-6" target="ITycf9PlYZN2DS5Wk8c8-62">
          <mxGeometry width="50" height="50" relative="1" as="geometry">
            <mxPoint x="740" y="260" as="sourcePoint" />
            <mxPoint x="790" y="210" as="targetPoint" />
          </mxGeometry>
        </mxCell>
        <mxCell id="ITycf9PlYZN2DS5Wk8c8-65" value="" style="endArrow=none;html=1;rounded=0;exitX=0.995;exitY=0.76;exitDx=0;exitDy=0;exitPerimeter=0;entryX=-0.027;entryY=0.514;entryDx=0;entryDy=0;entryPerimeter=0;" edge="1" parent="1" source="Pi3pMl7nlMtp50f2_m2q-6" target="ITycf9PlYZN2DS5Wk8c8-63">
          <mxGeometry width="50" height="50" relative="1" as="geometry">
            <mxPoint x="770" y="350" as="sourcePoint" />
            <mxPoint x="840" y="281" as="targetPoint" />
          </mxGeometry>
        </mxCell>
        <mxCell id="ITycf9PlYZN2DS5Wk8c8-66" value="&lt;u&gt;id_tablero&lt;/u&gt;" style="text;html=1;align=center;verticalAlign=middle;resizable=0;points=[];autosize=1;strokeColor=none;fillColor=none;" vertex="1" parent="1">
          <mxGeometry x="-460" y="104" width="80" height="30" as="geometry" />
        </mxCell>
        <mxCell id="ITycf9PlYZN2DS5Wk8c8-67" value="" style="endArrow=none;html=1;rounded=0;entryX=0;entryY=0.25;entryDx=0;entryDy=0;exitX=1.013;exitY=0.621;exitDx=0;exitDy=0;exitPerimeter=0;" edge="1" parent="1" source="ITycf9PlYZN2DS5Wk8c8-66" target="86JGCpucS24EAb0vi1x8-4">
          <mxGeometry width="50" height="50" relative="1" as="geometry">
            <mxPoint x="-380" y="186" as="sourcePoint" />
            <mxPoint x="-330" y="136" as="targetPoint" />
          </mxGeometry>
        </mxCell>
        <mxCell id="ITycf9PlYZN2DS5Wk8c8-68" value="tiene" style="rhombus;whiteSpace=wrap;html=1;" vertex="1" parent="1">
          <mxGeometry x="530" y="420" width="130" height="60" as="geometry" />
        </mxCell>
        <mxCell id="ITycf9PlYZN2DS5Wk8c8-69" value="" style="endArrow=none;html=1;rounded=0;exitX=0.5;exitY=0;exitDx=0;exitDy=0;entryX=0.5;entryY=1;entryDx=0;entryDy=0;" edge="1" parent="1" source="ITycf9PlYZN2DS5Wk8c8-68" target="86JGCpucS24EAb0vi1x8-2">
          <mxGeometry width="50" height="50" relative="1" as="geometry">
            <mxPoint x="760" y="470" as="sourcePoint" />
            <mxPoint x="810" y="420" as="targetPoint" />
          </mxGeometry>
        </mxCell>
        <mxCell id="ITycf9PlYZN2DS5Wk8c8-70" value="" style="endArrow=none;html=1;rounded=0;exitX=0.5;exitY=1;exitDx=0;exitDy=0;entryX=0.5;entryY=0;entryDx=0;entryDy=0;" edge="1" parent="1" source="ITycf9PlYZN2DS5Wk8c8-68" target="ITycf9PlYZN2DS5Wk8c8-7">
          <mxGeometry width="50" height="50" relative="1" as="geometry">
            <mxPoint x="660" y="520" as="sourcePoint" />
            <mxPoint x="710" y="470" as="targetPoint" />
          </mxGeometry>
        </mxCell>
        <mxCell id="ITycf9PlYZN2DS5Wk8c8-71" value="1" style="text;html=1;align=center;verticalAlign=middle;resizable=0;points=[];autosize=1;strokeColor=none;fillColor=none;" vertex="1" parent="1">
          <mxGeometry x="595" y="358" width="30" height="30" as="geometry" />
        </mxCell>
        <mxCell id="ITycf9PlYZN2DS5Wk8c8-72" value="N" style="text;html=1;align=center;verticalAlign=middle;resizable=0;points=[];autosize=1;strokeColor=none;fillColor=none;" vertex="1" parent="1">
          <mxGeometry x="585" y="510" width="30" height="30" as="geometry" />
        </mxCell>
        <mxCell id="ITycf9PlYZN2DS5Wk8c8-73" value="tiene" style="rhombus;whiteSpace=wrap;html=1;" vertex="1" parent="1">
          <mxGeometry x="175" y="480" width="133" height="66" as="geometry" />
        </mxCell>
        <mxCell id="ITycf9PlYZN2DS5Wk8c8-74" value="" style="endArrow=none;html=1;rounded=0;entryX=1;entryY=0.5;entryDx=0;entryDy=0;exitX=0;exitY=0.25;exitDx=0;exitDy=0;" edge="1" parent="1" source="ITycf9PlYZN2DS5Wk8c8-7" target="ITycf9PlYZN2DS5Wk8c8-73">
          <mxGeometry width="50" height="50" relative="1" as="geometry">
            <mxPoint x="650" y="550" as="sourcePoint" />
            <mxPoint x="690" y="510" as="targetPoint" />
          </mxGeometry>
        </mxCell>
        <mxCell id="ITycf9PlYZN2DS5Wk8c8-75" value="" style="endArrow=none;html=1;rounded=0;entryX=1;entryY=0.25;entryDx=0;entryDy=0;exitX=0;exitY=0.5;exitDx=0;exitDy=0;" edge="1" parent="1" source="ITycf9PlYZN2DS5Wk8c8-73" target="ITycf9PlYZN2DS5Wk8c8-15">
          <mxGeometry width="50" height="50" relative="1" as="geometry">
            <mxPoint x="250" y="473" as="sourcePoint" />
            <mxPoint x="860" y="430" as="targetPoint" />
          </mxGeometry>
        </mxCell>
        <mxCell id="ITycf9PlYZN2DS5Wk8c8-76" value="1" style="text;html=1;align=center;verticalAlign=middle;resizable=0;points=[];autosize=1;strokeColor=none;fillColor=none;" vertex="1" parent="1">
          <mxGeometry x="500" y="555" width="30" height="30" as="geometry" />
        </mxCell>
        <mxCell id="ITycf9PlYZN2DS5Wk8c8-77" value="N" style="text;html=1;align=center;verticalAlign=middle;resizable=0;points=[];autosize=1;strokeColor=none;fillColor=none;" vertex="1" parent="1">
          <mxGeometry x="-100" y="480" width="30" height="30" as="geometry" />
        </mxCell>
        <mxCell id="ITycf9PlYZN2DS5Wk8c8-19" value="id_jugador" style="text;html=1;align=center;verticalAlign=middle;resizable=0;points=[];autosize=1;strokeColor=none;fillColor=none;" vertex="1" parent="1">
          <mxGeometry x="-250" y="378" width="80" height="30" as="geometry" />
        </mxCell>
        <mxCell id="ITycf9PlYZN2DS5Wk8c8-81" value="es" style="rhombus;whiteSpace=wrap;html=1;" vertex="1" parent="1">
          <mxGeometry x="-125" y="342" width="90" height="46" as="geometry" />
        </mxCell>
        <mxCell id="ITycf9PlYZN2DS5Wk8c8-82" value="" style="endArrow=none;html=1;rounded=0;entryX=0;entryY=1;entryDx=0;entryDy=0;" edge="1" parent="1" target="ITycf9PlYZN2DS5Wk8c8-81">
          <mxGeometry width="50" height="50" relative="1" as="geometry">
            <mxPoint x="-130" y="460" as="sourcePoint" />
            <mxPoint x="-100" y="420" as="targetPoint" />
          </mxGeometry>
        </mxCell>
        <mxCell id="ITycf9PlYZN2DS5Wk8c8-83" value="" style="endArrow=none;html=1;rounded=0;entryX=0;entryY=0.75;entryDx=0;entryDy=0;exitX=1;exitY=0;exitDx=0;exitDy=0;" edge="1" parent="1" source="ITycf9PlYZN2DS5Wk8c8-81" target="86JGCpucS24EAb0vi1x8-1">
          <mxGeometry width="50" height="50" relative="1" as="geometry">
            <mxPoint x="-110" y="330" as="sourcePoint" />
            <mxPoint x="-60" y="280" as="targetPoint" />
          </mxGeometry>
        </mxCell>
        <mxCell id="ITycf9PlYZN2DS5Wk8c8-84" value="1" style="text;html=1;align=center;verticalAlign=middle;resizable=0;points=[];autosize=1;strokeColor=none;fillColor=none;" vertex="1" parent="1">
          <mxGeometry x="5" y="325" width="30" height="30" as="geometry" />
        </mxCell>
        <mxCell id="ITycf9PlYZN2DS5Wk8c8-85" value="1" style="text;html=1;align=center;verticalAlign=middle;resizable=0;points=[];autosize=1;strokeColor=none;fillColor=none;" vertex="1" parent="1">
          <mxGeometry x="-155" y="438" width="30" height="30" as="geometry" />
        </mxCell>
        <mxCell id="ITycf9PlYZN2DS5Wk8c8-88" value="usa" style="rhombus;whiteSpace=wrap;html=1;" vertex="1" parent="1">
          <mxGeometry x="-360" y="594" width="140" height="50" as="geometry" />
        </mxCell>
        <mxCell id="ITycf9PlYZN2DS5Wk8c8-89" value="" style="endArrow=none;html=1;rounded=0;entryX=0.156;entryY=0.972;entryDx=0;entryDy=0;entryPerimeter=0;exitX=1;exitY=0;exitDx=0;exitDy=0;" edge="1" parent="1" source="ITycf9PlYZN2DS5Wk8c8-88" target="ITycf9PlYZN2DS5Wk8c8-15">
          <mxGeometry width="50" height="50" relative="1" as="geometry">
            <mxPoint x="-280" y="600" as="sourcePoint" />
            <mxPoint x="-230" y="550" as="targetPoint" />
          </mxGeometry>
        </mxCell>
        <mxCell id="ITycf9PlYZN2DS5Wk8c8-90" value="" style="endArrow=none;html=1;rounded=0;entryX=1;entryY=1;entryDx=0;entryDy=0;" edge="1" parent="1" target="ITycf9PlYZN2DS5Wk8c8-88">
          <mxGeometry width="50" height="50" relative="1" as="geometry">
            <mxPoint x="-230" y="760" as="sourcePoint" />
            <mxPoint x="-120" y="670" as="targetPoint" />
          </mxGeometry>
        </mxCell>
        <mxCell id="ITycf9PlYZN2DS5Wk8c8-91" value="1" style="text;html=1;align=center;verticalAlign=middle;resizable=0;points=[];autosize=1;strokeColor=none;fillColor=none;" vertex="1" parent="1">
          <mxGeometry x="-210" y="526" width="30" height="30" as="geometry" />
        </mxCell>
        <mxCell id="ITycf9PlYZN2DS5Wk8c8-92" value="1" style="text;html=1;align=center;verticalAlign=middle;resizable=0;points=[];autosize=1;strokeColor=none;fillColor=none;" vertex="1" parent="1">
          <mxGeometry x="-227.5" y="732" width="30" height="30" as="geometry" />
        </mxCell>
        <mxCell id="ITycf9PlYZN2DS5Wk8c8-94" value="tiene" style="rhombus;whiteSpace=wrap;html=1;" vertex="1" parent="1">
          <mxGeometry x="-140" y="210" width="90" height="46" as="geometry" />
        </mxCell>
        <mxCell id="ITycf9PlYZN2DS5Wk8c8-95" value="" style="endArrow=none;html=1;rounded=0;exitX=1;exitY=0.5;exitDx=0;exitDy=0;entryX=0;entryY=0;entryDx=0;entryDy=0;" edge="1" parent="1" source="86JGCpucS24EAb0vi1x8-4" target="ITycf9PlYZN2DS5Wk8c8-94">
          <mxGeometry width="50" height="50" relative="1" as="geometry">
            <mxPoint x="-150" y="210" as="sourcePoint" />
            <mxPoint x="-100" y="160" as="targetPoint" />
          </mxGeometry>
        </mxCell>
        <mxCell id="ITycf9PlYZN2DS5Wk8c8-96" value="" style="endArrow=none;html=1;rounded=0;exitX=1;exitY=0.5;exitDx=0;exitDy=0;entryX=0.25;entryY=0;entryDx=0;entryDy=0;" edge="1" parent="1" source="ITycf9PlYZN2DS5Wk8c8-94" target="86JGCpucS24EAb0vi1x8-1">
          <mxGeometry width="50" height="50" relative="1" as="geometry">
            <mxPoint x="-40" y="210" as="sourcePoint" />
            <mxPoint x="10" y="160" as="targetPoint" />
          </mxGeometry>
        </mxCell>
        <mxCell id="ITycf9PlYZN2DS5Wk8c8-97" value="1" style="text;html=1;align=center;verticalAlign=middle;resizable=0;points=[];autosize=1;strokeColor=none;fillColor=none;" vertex="1" parent="1">
          <mxGeometry x="35" y="255" width="30" height="30" as="geometry" />
        </mxCell>
        <mxCell id="ITycf9PlYZN2DS5Wk8c8-98" value="N" style="text;html=1;align=center;verticalAlign=middle;resizable=0;points=[];autosize=1;strokeColor=none;fillColor=none;" vertex="1" parent="1">
          <mxGeometry x="-210" y="153" width="30" height="30" as="geometry" />
        </mxCell>
        <mxCell id="ITycf9PlYZN2DS5Wk8c8-99" value="contiene" style="rhombus;whiteSpace=wrap;html=1;" vertex="1" parent="1">
          <mxGeometry x="-520" y="227" width="150" height="58" as="geometry" />
        </mxCell>
        <mxCell id="ITycf9PlYZN2DS5Wk8c8-100" value="" style="endArrow=none;html=1;rounded=0;exitX=1;exitY=0.5;exitDx=0;exitDy=0;" edge="1" parent="1" source="ITycf9PlYZN2DS5Wk8c8-40" target="ITycf9PlYZN2DS5Wk8c8-99">
          <mxGeometry width="50" height="50" relative="1" as="geometry">
            <mxPoint x="-570" y="380" as="sourcePoint" />
            <mxPoint x="-520" y="330" as="targetPoint" />
          </mxGeometry>
        </mxCell>
        <mxCell id="ITycf9PlYZN2DS5Wk8c8-101" value="" style="endArrow=none;html=1;rounded=0;entryX=0;entryY=0.5;entryDx=0;entryDy=0;" edge="1" parent="1" source="ITycf9PlYZN2DS5Wk8c8-99" target="86JGCpucS24EAb0vi1x8-4">
          <mxGeometry width="50" height="50" relative="1" as="geometry">
            <mxPoint x="-370" y="306" as="sourcePoint" />
            <mxPoint x="-299.28932188134524" y="256" as="targetPoint" />
          </mxGeometry>
        </mxCell>
        <mxCell id="ITycf9PlYZN2DS5Wk8c8-102" value="N" style="text;html=1;align=center;verticalAlign=middle;whiteSpace=wrap;rounded=0;" vertex="1" parent="1">
          <mxGeometry x="-590" y="274" width="60" height="41" as="geometry" />
        </mxCell>
        <mxCell id="ITycf9PlYZN2DS5Wk8c8-104" value="1" style="text;html=1;align=center;verticalAlign=middle;resizable=0;points=[];autosize=1;strokeColor=none;fillColor=none;" vertex="1" parent="1">
          <mxGeometry x="-360" y="150" width="30" height="30" as="geometry" />
        </mxCell>
        <mxCell id="ITycf9PlYZN2DS5Wk8c8-105" value="contiene" style="rhombus;whiteSpace=wrap;html=1;" vertex="1" parent="1">
          <mxGeometry x="-715" y="400" width="150" height="58" as="geometry" />
        </mxCell>
        <mxCell id="ITycf9PlYZN2DS5Wk8c8-106" value="" style="endArrow=none;html=1;rounded=0;exitX=0.5;exitY=0;exitDx=0;exitDy=0;entryX=0.5;entryY=1;entryDx=0;entryDy=0;" edge="1" parent="1" source="ITycf9PlYZN2DS5Wk8c8-105" target="ITycf9PlYZN2DS5Wk8c8-40">
          <mxGeometry width="50" height="50" relative="1" as="geometry">
            <mxPoint x="-640" y="410" as="sourcePoint" />
            <mxPoint x="-590" y="360" as="targetPoint" />
          </mxGeometry>
        </mxCell>
        <mxCell id="ITycf9PlYZN2DS5Wk8c8-107" value="" style="endArrow=none;html=1;rounded=0;exitX=0.5;exitY=1;exitDx=0;exitDy=0;entryX=0.5;entryY=0;entryDx=0;entryDy=0;" edge="1" parent="1" source="ITycf9PlYZN2DS5Wk8c8-105" target="86JGCpucS24EAb0vi1x8-5">
          <mxGeometry width="50" height="50" relative="1" as="geometry">
            <mxPoint x="-560" y="510" as="sourcePoint" />
            <mxPoint x="-640" y="510" as="targetPoint" />
          </mxGeometry>
        </mxCell>
        <mxCell id="ITycf9PlYZN2DS5Wk8c8-108" value="pretenece" style="rhombus;whiteSpace=wrap;html=1;" vertex="1" parent="1">
          <mxGeometry x="-480" y="501" width="80" height="80" as="geometry" />
        </mxCell>
        <mxCell id="ITycf9PlYZN2DS5Wk8c8-109" value="" style="endArrow=none;html=1;rounded=0;exitX=1;exitY=0.5;exitDx=0;exitDy=0;entryX=0;entryY=0.5;entryDx=0;entryDy=0;" edge="1" parent="1" source="86JGCpucS24EAb0vi1x8-5" target="ITycf9PlYZN2DS5Wk8c8-108">
          <mxGeometry width="50" height="50" relative="1" as="geometry">
            <mxPoint x="-540" y="660" as="sourcePoint" />
            <mxPoint x="-490" y="610" as="targetPoint" />
          </mxGeometry>
        </mxCell>
        <mxCell id="ITycf9PlYZN2DS5Wk8c8-110" value="" style="endArrow=none;html=1;rounded=0;exitX=1;exitY=0.5;exitDx=0;exitDy=0;entryX=0;entryY=1;entryDx=0;entryDy=0;" edge="1" parent="1" source="ITycf9PlYZN2DS5Wk8c8-108" target="ITycf9PlYZN2DS5Wk8c8-15">
          <mxGeometry width="50" height="50" relative="1" as="geometry">
            <mxPoint x="-370" y="570" as="sourcePoint" />
            <mxPoint x="-320" y="520" as="targetPoint" />
          </mxGeometry>
        </mxCell>
        <mxCell id="ITycf9PlYZN2DS5Wk8c8-111" value="1" style="text;html=1;align=center;verticalAlign=middle;whiteSpace=wrap;rounded=0;" vertex="1" parent="1">
          <mxGeometry x="-660" y="348" width="60" height="30" as="geometry" />
        </mxCell>
        <mxCell id="ITycf9PlYZN2DS5Wk8c8-113" value="N" style="text;html=1;align=center;verticalAlign=middle;resizable=0;points=[];autosize=1;strokeColor=none;fillColor=none;" vertex="1" parent="1">
          <mxGeometry x="-645" y="490" width="30" height="30" as="geometry" />
        </mxCell>
        <mxCell id="ITycf9PlYZN2DS5Wk8c8-114" value="N" style="text;html=1;align=center;verticalAlign=middle;resizable=0;points=[];autosize=1;strokeColor=none;fillColor=none;" vertex="1" parent="1">
          <mxGeometry x="-590" y="520" width="30" height="30" as="geometry" />
        </mxCell>
        <mxCell id="ITycf9PlYZN2DS5Wk8c8-115" value="1" style="text;html=1;align=center;verticalAlign=middle;resizable=0;points=[];autosize=1;strokeColor=none;fillColor=none;" vertex="1" parent="1">
          <mxGeometry x="-247.5" y="501" width="30" height="30" as="geometry" />
        </mxCell>
        <mxCell id="ITycf9PlYZN2DS5Wk8c8-116" value="pertenece" style="rhombus;whiteSpace=wrap;html=1;" vertex="1" parent="1">
          <mxGeometry x="-414" y="310" width="120" height="60" as="geometry" />
        </mxCell>
        <mxCell id="ITycf9PlYZN2DS5Wk8c8-117" value="" style="endArrow=none;html=1;rounded=0;exitX=0.824;exitY=0.025;exitDx=0;exitDy=0;exitPerimeter=0;" edge="1" parent="1" source="86JGCpucS24EAb0vi1x8-5" target="ITycf9PlYZN2DS5Wk8c8-116">
          <mxGeometry width="50" height="50" relative="1" as="geometry">
            <mxPoint x="-590" y="520" as="sourcePoint" />
            <mxPoint x="-540" y="470" as="targetPoint" />
          </mxGeometry>
        </mxCell>
        <mxCell id="ITycf9PlYZN2DS5Wk8c8-118" value="" style="endArrow=none;html=1;rounded=0;exitX=1;exitY=0;exitDx=0;exitDy=0;entryX=0;entryY=0.25;entryDx=0;entryDy=0;" edge="1" parent="1" source="ITycf9PlYZN2DS5Wk8c8-116" target="86JGCpucS24EAb0vi1x8-1">
          <mxGeometry width="50" height="50" relative="1" as="geometry">
            <mxPoint x="-240" y="350" as="sourcePoint" />
            <mxPoint x="-190" y="300" as="targetPoint" />
          </mxGeometry>
        </mxCell>
        <mxCell id="ITycf9PlYZN2DS5Wk8c8-119" value="N" style="text;html=1;align=center;verticalAlign=middle;resizable=0;points=[];autosize=1;strokeColor=none;fillColor=none;" vertex="1" parent="1">
          <mxGeometry x="-620" y="490" width="30" height="30" as="geometry" />
        </mxCell>
        <mxCell id="ITycf9PlYZN2DS5Wk8c8-120" value="1" style="text;html=1;align=center;verticalAlign=middle;resizable=0;points=[];autosize=1;strokeColor=none;fillColor=none;" vertex="1" parent="1">
          <mxGeometry x="5" y="270" width="30" height="30" as="geometry" />
        </mxCell>
      </root>
    </mxGraphModel>
  </diagram>
</mxfile>
